<mxfile host="Electron" modified="2024-06-29T12:56:05.128Z" agent="Mozilla/5.0 (Windows NT 10.0; Win64; x64) AppleWebKit/537.36 (KHTML, like Gecko) draw.io/24.5.3 Chrome/124.0.6367.207 Electron/30.0.6 Safari/537.36" etag="XxIIS336blBm6zFuMWq2" version="24.5.3" type="device">
  <diagram name="Страница — 1" id="JQwUr6tuQ_Won7tkfVKR">
    <mxGraphModel dx="2901" dy="2365" grid="1" gridSize="10" guides="1" tooltips="1" connect="1" arrows="1" fold="1" page="1" pageScale="1" pageWidth="827" pageHeight="1169" background="none" math="0" shadow="0">
      <root>
        <mxCell id="0" />
        <mxCell id="1" parent="0" />
        <mxCell id="ddL0T9ZOIv9yKJdGdWqU-40" value="" style="rounded=0;whiteSpace=wrap;html=1;dashed=1;strokeColor=#6c8ebf;align=left;strokeWidth=2;fillColor=#dae8fc;" parent="1" vertex="1">
          <mxGeometry x="-40" y="-30" width="960" height="790" as="geometry" />
        </mxCell>
        <mxCell id="ddL0T9ZOIv9yKJdGdWqU-34" value="" style="rounded=0;whiteSpace=wrap;html=1;dashed=1;dashPattern=1 2;strokeColor=#00994D;align=left;strokeWidth=2;" parent="1" vertex="1">
          <mxGeometry x="20" y="50" width="820" height="570" as="geometry" />
        </mxCell>
        <mxCell id="ddL0T9ZOIv9yKJdGdWqU-30" value="" style="rounded=0;whiteSpace=wrap;html=1;dashed=1;dashPattern=1 2;strokeColor=#00994D;align=left;strokeWidth=2;fillColor=none;" parent="1" vertex="1">
          <mxGeometry x="530" y="130" width="230" height="460" as="geometry" />
        </mxCell>
        <mxCell id="ddL0T9ZOIv9yKJdGdWqU-5" value="&lt;font style=&quot;font-size: 16px;&quot;&gt;Users&lt;/font&gt;" style="outlineConnect=0;fontColor=#232F3E;gradientColor=none;fillColor=#232F3D;strokeColor=none;dashed=0;verticalLabelPosition=top;verticalAlign=bottom;align=center;html=1;fontSize=12;fontStyle=0;aspect=fixed;pointerEvents=1;shape=mxgraph.aws4.users;labelBackgroundColor=none;labelBorderColor=none;labelPosition=center;" parent="1" vertex="1">
          <mxGeometry x="371" y="-140" width="78" height="78" as="geometry" />
        </mxCell>
        <mxCell id="2T3rCLTG3NxYc7GKIcYM-25" style="edgeStyle=orthogonalEdgeStyle;rounded=0;orthogonalLoop=1;jettySize=auto;html=1;" parent="1" source="ddL0T9ZOIv9yKJdGdWqU-7" target="ddL0T9ZOIv9yKJdGdWqU-33" edge="1">
          <mxGeometry relative="1" as="geometry" />
        </mxCell>
        <mxCell id="2T3rCLTG3NxYc7GKIcYM-26" style="edgeStyle=orthogonalEdgeStyle;rounded=0;orthogonalLoop=1;jettySize=auto;html=1;" parent="1" source="ddL0T9ZOIv9yKJdGdWqU-7" target="ddL0T9ZOIv9yKJdGdWqU-11" edge="1">
          <mxGeometry relative="1" as="geometry" />
        </mxCell>
        <mxCell id="ddL0T9ZOIv9yKJdGdWqU-7" value="Load Balancer" style="aspect=fixed;pointerEvents=1;shadow=0;dashed=0;html=1;strokeColor=none;labelPosition=center;verticalLabelPosition=bottom;verticalAlign=top;align=center;fillColor=#00188D;shape=mxgraph.mscae.enterprise.gateway;" parent="1" vertex="1">
          <mxGeometry x="385" y="160" width="50" height="50" as="geometry" />
        </mxCell>
        <mxCell id="ddL0T9ZOIv9yKJdGdWqU-8" style="edgeStyle=orthogonalEdgeStyle;rounded=0;orthogonalLoop=1;jettySize=auto;html=1;entryX=0.5;entryY=0;entryDx=0;entryDy=0;entryPerimeter=0;strokeWidth=4;" parent="1" source="ddL0T9ZOIv9yKJdGdWqU-5" target="ddL0T9ZOIv9yKJdGdWqU-7" edge="1">
          <mxGeometry relative="1" as="geometry">
            <mxPoint x="410.0000000000002" y="-12" as="sourcePoint" />
          </mxGeometry>
        </mxCell>
        <mxCell id="ddL0T9ZOIv9yKJdGdWqU-28" value="" style="rounded=0;whiteSpace=wrap;html=1;dashed=1;dashPattern=1 2;strokeColor=#00994D;align=left;strokeWidth=2;fixDash=0;container=0;fillColor=none;" parent="1" vertex="1">
          <mxGeometry x="60" y="130" width="230" height="460" as="geometry" />
        </mxCell>
        <mxCell id="ddL0T9ZOIv9yKJdGdWqU-29" value="Available zone: ru-central-b" style="text;html=1;strokeColor=#82b366;fillColor=#d5e8d4;align=center;verticalAlign=middle;whiteSpace=wrap;rounded=0;" parent="1" vertex="1">
          <mxGeometry x="60" y="130" width="230" height="30" as="geometry" />
        </mxCell>
        <mxCell id="ddL0T9ZOIv9yKJdGdWqU-13" value="" style="rounded=0;whiteSpace=wrap;html=1;fillStyle=auto;dashed=1;dashPattern=1 2;strokeWidth=2;noLabel=0;fillColor=none;" parent="1" vertex="1">
          <mxGeometry x="70" y="250" width="680" height="200" as="geometry" />
        </mxCell>
        <mxCell id="ddL0T9ZOIv9yKJdGdWqU-31" value="Available zone:&amp;nbsp;ru-central-d" style="text;html=1;strokeColor=#82b366;fillColor=#d5e8d4;align=center;verticalAlign=middle;whiteSpace=wrap;rounded=0;" parent="1" vertex="1">
          <mxGeometry x="530" y="130" width="230" height="30" as="geometry" />
        </mxCell>
        <mxCell id="ddL0T9ZOIv9yKJdGdWqU-37" value="" style="outlineConnect=0;dashed=0;verticalLabelPosition=bottom;verticalAlign=top;align=center;html=1;shape=mxgraph.aws3.virtual_private_cloud;fillColor=#F58534;gradientColor=none;" parent="1" vertex="1">
          <mxGeometry x="20" y="50" width="50" height="30" as="geometry" />
        </mxCell>
        <mxCell id="ddL0T9ZOIv9yKJdGdWqU-41" value="Yandex Cloud" style="text;html=1;strokeColor=#d6b656;fillColor=#fff2cc;align=center;verticalAlign=middle;whiteSpace=wrap;rounded=0;" parent="1" vertex="1">
          <mxGeometry x="-40" y="-30" width="100" height="30" as="geometry" />
        </mxCell>
        <mxCell id="ddL0T9ZOIv9yKJdGdWqU-44" value="&lt;b style=&quot;border-color: var(--border-color);&quot;&gt;Container Registry&lt;/b&gt;" style="editableCssRules=.*;html=1;shape=image;verticalLabelPosition=bottom;labelBackgroundColor=none;verticalAlign=top;aspect=fixed;imageAspect=0;image=data:image/svg+xml,PHN2ZyB4bWxucz0iaHR0cDovL3d3dy53My5vcmcvMjAwMC9zdmciIHhtbG5zOnY9Imh0dHBzOi8vdmVjdGEuaW8vbmFubyIgd2lkdGg9IjM3Ny4xNTkzMDIxNjAyNjMwNSIgaGVpZ2h0PSIzMzYuMTYyNDk5MDAzMzEwOCIgdmlld0JveD0iLTAuMDU4MDAwMDA1NzgxNjUwNTQgMC4xMTI5OTk5OTgwMzMwNDY3MiA5OS43OTAwMDA5MTU1MjczNCA4OC45NDMwMDA3OTM0NTcwMyI+JiN4YTs8c3R5bGUgdHlwZT0idGV4dC9jc3MiPiYjeGE7CS5zdDB7ZmlsbDojNjY5ZGY2O30mI3hhOwkuc3Qxe2ZpbGw6I2FlY2JmYTt9JiN4YTsJLnN0MntmaWxsOiM0Mjg1ZjQ7fSYjeGE7PC9zdHlsZT4mI3hhOwk8cGF0aCBjbGFzcz0ic3QwIiBkPSJNNTMuMjQzIDYyLjA5VjQ3LjA5NGwxMy4yMDEgOC40MTZ2MTUuMDM4em0tMzMuMDIxIDBWNDcuMDk0bDEzLjIwMSA4LjQxNnYxNS4wMzh6bTE2LjUxMS0zMi4yODVWMTQuODFsMTMuMjAxIDguNDE2djE1LjAzOHptNjIuOTk5IDMzLjk2VjI1LjQwM2wtOS41NjItMS44ODR2NDIuMTMxem0tOTkuNzg4IDBWMjUuNDAzbDkuNTYyLTEuODg0djQyLjEzMXoiLz4mI3hhOwk8cGF0aCBjbGFzcz0ic3QxIiBkPSJNNTMuMTg1IDQ3LjA5NGwxMy4yNTgtOC4yODcgMTMuMDE2IDguMjM0LTEzLjAxNiA4LjQ2OXptLTMzLjAyMSAwbDEzLjI1OC04LjI4NyAxMy4wMTYgOC4yMzQtMTMuMDE2IDguNDY5ek0zNi42NzUgMTQuODFsMTMuMjU4LTguMjg3IDEzLjAxNiA4LjIzNC0xMy4wMTYgOC40Njl6bTYzLjA1NiA0OC45NTZ2MTIuMjE3TDc3LjAxIDg5LjA1NVY3Ny43NTJ6bTAtMzguMzYzVjEzLjE4Nkw3Ny4wMS4xMTN2MTEuMzAzek0tLjA1OCA2My43NjZ2MTIuMjE3bDIyLjcyMSAxMy4wNzNWNzcuNzUyem0wLTM4LjM2M1YxMy4xODZMMjIuNjYzLjExM3YxMS4zMDN6Ii8+JiN4YTsJPHBhdGggY2xhc3M9InN0MiIgZD0iTTY2LjQ0NCA3MC41NDdWNTUuNTFsMTMuMDE2LTguNDY5djE1LjR6bS0zMy4wMjEgMFY1NS41MWwxMy4wMTYtOC40Njl2MTUuNHptMTYuNTExLTMyLjI4NVYyMy4yMjVsMTMuMDE2LTguNDY5djE1LjR6bTQ5Ljc5OCAyNS41MDNsLTkuNTYyIDUuODh2LTMuOTk2em0wLTM4LjM2M2wtOS41NjItNS44OHYzLjk5NnpNLS4wNTggNjMuNzY2bDkuNTYyIDUuODh2LTMuOTk2em0wLTM4LjM2M2w5LjU2Mi01Ljg4djMuOTk2eiIvPiYjeGE7PC9zdmc+;" parent="1" vertex="1">
          <mxGeometry x="376.65999999999997" y="670" width="66.67" height="60" as="geometry" />
        </mxCell>
        <mxCell id="ddL0T9ZOIv9yKJdGdWqU-52" value="" style="rounded=0;whiteSpace=wrap;html=1;dashed=1;dashPattern=1 2;strokeColor=#ff0000;align=left;strokeWidth=2;fillColor=none;" parent="1" vertex="1">
          <mxGeometry x="140" y="460" width="550" height="120" as="geometry" />
        </mxCell>
        <mxCell id="ddL0T9ZOIv9yKJdGdWqU-49" value="Host 1" style="image;aspect=fixed;html=1;points=[];align=center;fontSize=12;image=img/lib/azure2/databases/Azure_Database_PostgreSQL_Server.svg;" parent="1" vertex="1">
          <mxGeometry x="147" y="480" width="48" height="64" as="geometry" />
        </mxCell>
        <mxCell id="ddL0T9ZOIv9yKJdGdWqU-51" value="Host 2" style="image;aspect=fixed;html=1;points=[];align=center;fontSize=12;image=img/lib/azure2/databases/Azure_Database_PostgreSQL_Server.svg;" parent="1" vertex="1">
          <mxGeometry x="635" y="480" width="48" height="64" as="geometry" />
        </mxCell>
        <mxCell id="ddL0T9ZOIv9yKJdGdWqU-60" style="edgeStyle=orthogonalEdgeStyle;rounded=0;orthogonalLoop=1;jettySize=auto;html=1;" parent="1" source="ddL0T9ZOIv9yKJdGdWqU-53" target="ddL0T9ZOIv9yKJdGdWqU-49" edge="1">
          <mxGeometry relative="1" as="geometry" />
        </mxCell>
        <mxCell id="ddL0T9ZOIv9yKJdGdWqU-53" value="Managed Postgresql cluster" style="text;html=1;strokeColor=#b85450;fillColor=#f8cecc;align=center;verticalAlign=middle;whiteSpace=wrap;rounded=0;" parent="1" vertex="1">
          <mxGeometry x="289.99" y="497" width="240" height="30" as="geometry" />
        </mxCell>
        <mxCell id="ddL0T9ZOIv9yKJdGdWqU-54" style="edgeStyle=orthogonalEdgeStyle;rounded=0;orthogonalLoop=1;jettySize=auto;html=1;" parent="1" source="ddL0T9ZOIv9yKJdGdWqU-12" target="ddL0T9ZOIv9yKJdGdWqU-53" edge="1">
          <mxGeometry relative="1" as="geometry">
            <Array as="points">
              <mxPoint x="610" y="430" />
              <mxPoint x="410" y="430" />
            </Array>
          </mxGeometry>
        </mxCell>
        <mxCell id="ddL0T9ZOIv9yKJdGdWqU-55" style="edgeStyle=orthogonalEdgeStyle;rounded=0;orthogonalLoop=1;jettySize=auto;html=1;" parent="1" source="ddL0T9ZOIv9yKJdGdWqU-11" target="ddL0T9ZOIv9yKJdGdWqU-53" edge="1">
          <mxGeometry relative="1" as="geometry">
            <Array as="points">
              <mxPoint x="700" y="430" />
              <mxPoint x="410" y="430" />
            </Array>
          </mxGeometry>
        </mxCell>
        <mxCell id="ddL0T9ZOIv9yKJdGdWqU-56" style="edgeStyle=orthogonalEdgeStyle;rounded=0;orthogonalLoop=1;jettySize=auto;html=1;entryX=0.5;entryY=0;entryDx=0;entryDy=0;" parent="1" source="ddL0T9ZOIv9yKJdGdWqU-32" target="ddL0T9ZOIv9yKJdGdWqU-53" edge="1">
          <mxGeometry relative="1" as="geometry">
            <Array as="points">
              <mxPoint x="220" y="430" />
              <mxPoint x="410" y="430" />
            </Array>
          </mxGeometry>
        </mxCell>
        <mxCell id="ddL0T9ZOIv9yKJdGdWqU-57" style="edgeStyle=orthogonalEdgeStyle;rounded=0;orthogonalLoop=1;jettySize=auto;html=1;entryX=0.5;entryY=0;entryDx=0;entryDy=0;" parent="1" source="ddL0T9ZOIv9yKJdGdWqU-33" target="ddL0T9ZOIv9yKJdGdWqU-53" edge="1">
          <mxGeometry relative="1" as="geometry">
            <Array as="points">
              <mxPoint x="130" y="430" />
              <mxPoint x="410" y="430" />
            </Array>
          </mxGeometry>
        </mxCell>
        <mxCell id="ddL0T9ZOIv9yKJdGdWqU-59" style="edgeStyle=orthogonalEdgeStyle;rounded=0;orthogonalLoop=1;jettySize=auto;html=1;entryX=0.038;entryY=0.505;entryDx=0;entryDy=0;entryPerimeter=0;" parent="1" source="ddL0T9ZOIv9yKJdGdWqU-53" target="ddL0T9ZOIv9yKJdGdWqU-51" edge="1">
          <mxGeometry relative="1" as="geometry" />
        </mxCell>
        <mxCell id="ddL0T9ZOIv9yKJdGdWqU-12" value="Instance" style="image;aspect=fixed;html=1;points=[];align=center;fontSize=12;image=img/lib/mscae/Virtual_Machine.svg;" parent="1" vertex="1">
          <mxGeometry x="585" y="320" width="50" height="46" as="geometry" />
        </mxCell>
        <mxCell id="ddL0T9ZOIv9yKJdGdWqU-11" value="Instance" style="image;aspect=fixed;html=1;points=[];align=center;fontSize=12;image=img/lib/mscae/Virtual_Machine.svg;" parent="1" vertex="1">
          <mxGeometry x="675" y="320" width="50" height="46" as="geometry" />
        </mxCell>
        <mxCell id="ddL0T9ZOIv9yKJdGdWqU-32" value="Instance" style="image;aspect=fixed;html=1;points=[];align=center;fontSize=12;image=img/lib/mscae/Virtual_Machine.svg;" parent="1" vertex="1">
          <mxGeometry x="195" y="320" width="50" height="46" as="geometry" />
        </mxCell>
        <mxCell id="ddL0T9ZOIv9yKJdGdWqU-33" value="Instance" style="image;aspect=fixed;html=1;points=[];align=center;fontSize=12;image=img/lib/mscae/Virtual_Machine.svg;" parent="1" vertex="1">
          <mxGeometry x="105" y="320" width="50" height="46" as="geometry" />
        </mxCell>
        <mxCell id="ddL0T9ZOIv9yKJdGdWqU-61" style="edgeStyle=orthogonalEdgeStyle;rounded=0;orthogonalLoop=1;jettySize=auto;html=1;" parent="1" source="ddL0T9ZOIv9yKJdGdWqU-7" target="ddL0T9ZOIv9yKJdGdWqU-12" edge="1">
          <mxGeometry relative="1" as="geometry" />
        </mxCell>
        <mxCell id="ddL0T9ZOIv9yKJdGdWqU-64" style="edgeStyle=orthogonalEdgeStyle;rounded=0;orthogonalLoop=1;jettySize=auto;html=1;" parent="1" source="ddL0T9ZOIv9yKJdGdWqU-7" target="ddL0T9ZOIv9yKJdGdWqU-32" edge="1">
          <mxGeometry relative="1" as="geometry" />
        </mxCell>
        <mxCell id="ddL0T9ZOIv9yKJdGdWqU-73" value="Cloud IAM" style="outlineConnect=0;fontColor=#232F3E;gradientColor=none;fillColor=#DD344C;strokeColor=none;dashed=0;verticalLabelPosition=bottom;verticalAlign=top;align=center;html=1;fontSize=12;fontStyle=0;aspect=fixed;pointerEvents=1;shape=mxgraph.aws4.identity_access_management_iam_roles_anywhere;" parent="1" vertex="1">
          <mxGeometry x="860" y="675" width="50" height="50" as="geometry" />
        </mxCell>
        <mxCell id="2T3rCLTG3NxYc7GKIcYM-3" value="&lt;b&gt;&lt;font style=&quot;font-size: 14px;&quot;&gt;Auto scaling Instance group&lt;/font&gt;&lt;/b&gt;" style="sketch=0;pointerEvents=1;shadow=0;dashed=0;html=1;strokeColor=none;fillColor=#DF8C42;labelPosition=center;verticalLabelPosition=bottom;verticalAlign=top;align=center;outlineConnect=0;shape=mxgraph.veeam2.scale_out_backup_repository2;" parent="1" vertex="1">
          <mxGeometry x="386.5" y="250" width="47" height="50" as="geometry" />
        </mxCell>
        <mxCell id="F6ytAcGWMURxtJgM90B_-1" value="Cloud Monitoring" style="sketch=0;shadow=0;dashed=0;html=1;strokeColor=none;fillColor=#505050;labelPosition=center;verticalLabelPosition=bottom;verticalAlign=top;outlineConnect=0;align=center;shape=mxgraph.office.databases.monitoring_store;" vertex="1" parent="1">
          <mxGeometry x="-19" y="675" width="58" height="58" as="geometry" />
        </mxCell>
      </root>
    </mxGraphModel>
  </diagram>
</mxfile>
